<?xml version="1.0" encoding="utf-8"?>
<!-- Generator: Adobe Illustrator 26.3.1, SVG Export Plug-In . SVG Version: 6.00 Build 0)  -->
<svg version="1.1" id="Layer_1" xmlns="http://www.w3.org/2000/svg" xmlns:xlink="http://www.w3.org/1999/xlink" x="0px" y="0px"
	 viewBox="0 0 256 256" style="enable-background:new 0 0 256 256;" xml:space="preserve">
<style type="text/css">
	.st0{fill:#2E37FE;}
	.st1{fill:#FFFFFF;}
	.st2{fill:#EA9BC3;}
	.st3{fill:none;}
</style>
<g>
	<rect x="132.6" y="132.6" class="st0" width="114.1" height="114.1"/>
	<polygon class="st0" points="214.7,78.7 205.5,78.6 205.7,9.2 173.8,9.2 173.6,78.7 164.4,78.6 164.5,9.2 132.6,9.2 132.6,123.4 
		246.8,123.4 246.8,9.2 214.9,9.2 	"/>
	<path class="st1" d="M132.6,0h-9.2H0v123.4v9.2V256h123.4h9.2H256V132.6v-9.2V0H132.6z M246.8,246.8H132.6V132.6h114.1L246.8,246.8
		L246.8,246.8z M9.2,9.2h47.7l17.4,46.3l4.3-1.6l4.3-1.6L66.8,9.2h56.6v114.1H75.7L58.3,77L54,78.6l-4.3,1.6l16.2,43.1H9.2V9.2z
		 M4.6,202L4.6,202L4.6,202L4.6,202z M9.2,206.6h46.3v9.2h9.2v-18.5H9.2v-64.8h114.1v40.1H77.1v-9.3h-9.2V182h55.5v64.8H9.2V206.6z
		 M246.8,123.4H132.6V9.2h31.9l-0.2,69.4h9.2l0.2-69.4h31.9l-0.2,69.4h9.2l0.2-69.4h31.8v114.2H246.8z M210.3,4.6L210.3,4.6
		L210.3,4.6z M169.2,4.6L169.2,4.6L169.2,4.6z M60.1,4.6L60.1,4.6L60.1,4.6z"/>
	<polygon class="st0" points="123.4,182 67.8,182 67.8,163.5 77.1,163.5 77.1,172.7 123.4,172.7 123.4,132.6 9.2,132.6 9.2,197.4 
		64.8,197.4 64.8,215.9 55.5,215.9 55.5,206.6 9.2,206.6 9.2,246.8 123.4,246.8 	"/>
	<path class="st2" d="M4.6,202L4.6,202L4.6,202z"/>
	<polygon class="st0" points="49.6,80.3 54,78.6 54,78.6 54,78.6 58.3,77 75.7,123.4 123.4,123.4 123.4,9.2 66.8,9.2 83,52.3 
		78.6,54 78.6,54 78.6,54 74.3,55.6 56.9,9.2 9.2,9.2 9.2,123.4 65.8,123.4 	"/>
	<line class="st3" x1="60.1" y1="4.6" x2="60.1" y2="4.6"/>
	<line class="st3" x1="78.6" y1="54" x2="78.6" y2="54"/>
</g>
<g>
	<path class="st1" d="M202.5,203H198v-8.8c0-3.5-0.7-5.7-3.2-5.7c-2.3,0-3.9,1.9-3.9,5.6v8.9h-4.6v-18.2h4.6v2.1
		c1.5-1.7,3.5-2.6,5.7-2.6c2.3,0,4.2,1.1,5.3,3.3c1.7-2.1,3.4-3.3,6.1-3.3c2,0,3.8,0.8,4.9,2.1c1.2,1.5,1.3,3.5,1.3,5.9V203h-4.6
		v-10c0-3-1.1-4.5-3.1-4.5c-2.3,0-3.9,1.8-3.9,5.5V203z"/>
	<path class="st1" d="M234.8,199.5c-2,2.8-4.5,4-8.4,4c-5.8,0-9.5-4.3-9.5-9.6c0-5,3.6-9.6,9.5-9.6c5.8,0,9.7,4.1,9.7,9.9
		c0,0.4,0,0.6,0,1h-14.7c0.4,2.7,2.5,4.2,5.1,4.2c2,0,3.3-0.5,4.5-1.8L234.8,199.5z M231.4,191.6c-0.6-2.1-2.6-3.4-5-3.4
		c-2.3,0-4,1.1-4.9,3.4H231.4z"/>
	<path class="st1" d="M200.6,234.1c-1.6,1.6-3.3,2.4-5.6,2.4c-4.6,0-8.7-4-8.7-9.6c0-5.7,3.8-9.6,8.6-9.6c2.2,0,4.1,0.8,5.7,2.5v-9
		h4.6V236h-4.6V234.1z M190.9,226.9c0,3.1,2.1,5.4,4.9,5.4c2.8,0,5-2.1,5-5.5c0-3.2-2.1-5.3-5-5.3
		C192.8,221.5,190.9,223.9,190.9,226.9z"/>
	<path class="st1" d="M214.5,213.3c0,1.6-1.3,2.9-2.9,2.9c-1.7,0-2.9-1.5-2.9-3.2c0-1.6,1.3-2.8,2.9-2.8
		C213.2,210.3,214.5,211.7,214.5,213.3z M209.3,217.8h4.6V236h-4.6V217.8z"/>
	<path class="st1" d="M231.4,234.1c-1.6,1.6-3.3,2.4-5.6,2.4c-4.6,0-8.7-4-8.7-9.6c0-5.7,3.8-9.6,8.6-9.6c2.2,0,4.1,0.8,5.7,2.5v-2
		h4.6V236h-4.6V234.1z M221.7,226.9c0,3.1,2.1,5.4,4.9,5.4c2.8,0,5-2.1,5-5.5c0-3.2-2.1-5.3-5-5.3
		C223.6,221.5,221.7,223.9,221.7,226.9z"/>
</g>
</svg>
